# xmcd
#
# Track frame offsets: 
#        150
#        28077
#        51780
#        67040
#        79034
#        94406
#        121469
#        141591
#        165998
#        186365
#
# Disc length: 2926 seconds
#
# Revision: 1
# Processed by: cddbd v1.5.2PL0 Copyright (c) Steve Scherf et al.
# Submitted via: ExactAudioCopy v0.99pb5
#
DISCID=8f0b6c0a
DTITLE=Misha Alperin - Her First Dance
DYEAR=2008
DGENRE=Jazz
TTITLE0=Vayan
TTITLE1=Her First Dance
TTITLE2=A New Day
TTITLE3=April in February
TTITLE4=Jump
TTITLE5=Tiflis
TTITLE6=Lonely In White
TTITLE7=Frozen Tears
TTITLE8=The Russian Song
TTITLE9=Via Dolorosa
EXTD=YEAR: 2008
EXTT0=
EXTT1=
EXTT2=
EXTT3=
EXTT4=
EXTT5=
EXTT6=
EXTT7=
EXTT8=
EXTT9=
PLAYORDER=
